<svg width="698" height="552" viewBox="0 0 698 552" fill="none" xmlns="http://www.w3.org/2000/svg">
<path d="M137.173 257.521C137.233 255.932 137.354 254.335 137.354 252.746C137.263 198.334 137.151 143.922 137.075 89.5099C137.068 83.5289 137.436 77.5319 137.286 71.5589C137.211 68.6842 138.519 68.6842 140.467 68.7321C154.851 69.0994 169.206 69.7542 183.553 71.2235C199.599 72.8605 215.457 75.5117 231.09 79.5123C263.07 87.6893 292.509 101.2 316.458 126.131C321.143 131.002 323.579 135.953 323.075 143.179C322.413 152.57 322.752 162.065 322.985 171.503C323.068 174.753 322.18 176.103 319.195 176.877C306.104 180.271 294.998 187.338 286.23 198.238C279.575 206.503 274.891 215.957 272.755 226.642C272.124 229.796 270.943 230.85 267.83 230.738C258.694 230.387 249.55 230.395 240.407 230.363C236.64 230.347 232.91 230.866 229.526 232.783C225.338 235.162 223.217 239.682 223.887 244.369C224.594 249.288 228.338 253.353 232.857 254.375C236.452 255.181 240.068 255.085 243.7 255.085C252.092 255.078 260.491 255.157 268.883 255.022C271.101 254.982 272.101 255.581 272.725 258C279.47 283.968 294.757 301.049 319.503 308.052C322.06 308.771 323.271 309.769 323.015 312.811C322.752 315.966 323.09 319.176 323.158 322.354C316.601 326.49 309.089 327.704 301.983 330.163C264.469 343.14 226.376 353.473 187.124 358.503C170.589 360.627 154.001 361.849 137.331 361.027C137.301 331.832 137.271 302.638 137.241 273.444C137.218 268.133 137.196 262.823 137.173 257.513V257.521ZM175.755 115.39C174.499 115.39 173.236 115.255 172.003 115.414C169.123 115.798 167.002 117.307 166.694 120.589C166.401 123.767 168.348 125.476 170.86 126.426C172.251 126.953 173.793 127.129 175.281 127.264C184.38 128.071 193.486 128.758 202.471 130.546C227.549 135.529 251.987 142.532 274.041 156.81C277.35 158.95 280.493 161.41 283.861 163.438C286.568 165.067 289.328 164.58 291.275 161.945C293.193 159.342 292.155 156.898 290.11 154.902C288.644 153.464 287.14 152.019 285.463 150.885C252.009 128.207 214.788 118.656 175.748 115.398L175.755 115.39ZM176.53 256.714C175.266 256.714 173.469 256.459 171.77 256.778C169.161 257.265 167.07 258.759 166.672 261.825C166.273 264.899 168.183 266.433 170.491 267.479C172.469 268.373 174.59 268.565 176.74 268.605C180.109 268.676 183.477 268.413 186.839 269.116C193.396 270.481 193.666 270.761 193.689 277.947C193.711 284.927 194.997 286.771 201.344 287.849C223.864 291.69 245.452 298.286 264.965 311.326C269.65 314.456 272.928 314.233 274.823 311.007C276.462 308.22 275.229 305.018 271.018 301.816C266.116 298.094 260.687 295.324 255.258 292.64C241.023 285.613 226.203 280.543 210.63 278.059C203.72 276.957 203.727 276.861 203.569 269.643C203.434 263.829 200.795 260.516 195.215 259.086C189.237 257.561 183.162 256.906 176.537 256.699L176.53 256.714ZM172.86 150.654C169.612 150.598 166.664 152.682 166.596 156.147C166.529 159.501 169.484 162.033 173.996 162.488C174.123 162.504 174.244 162.488 174.372 162.504C180.222 163.031 186.094 163.35 191.922 164.117C211.111 166.648 229.842 171.136 247.625 179.433C251.4 181.197 255.07 183.218 258.852 184.958C262.341 186.563 265.108 185.709 266.665 182.699C268.371 179.401 266.183 177.42 264.213 175.6C262.815 174.314 261.168 173.244 259.484 172.405C232.511 158.958 204.02 152.203 172.86 150.638V150.654ZM176.357 305.593C174.853 305.593 173.341 305.449 171.86 305.625C168.634 306.008 167.018 308.252 166.679 311.462C166.356 314.528 168.138 316.157 170.747 316.716C176.65 317.97 182.665 317.77 188.636 318.138C199.772 318.816 210.69 320.908 221.488 323.775C229.496 325.907 237.241 328.902 244.926 332.088C248.723 333.661 252.024 332.695 253.43 329.86C254.746 327.217 253.476 324.494 249.483 322.002C247.227 320.597 244.873 319.248 242.407 318.361C220.984 310.663 199.058 305.84 176.349 305.593H176.357ZM178.221 185.565C175.966 185.565 173.68 185.31 171.469 185.629C168.521 186.052 166.905 188.121 166.657 191.323C166.416 194.421 167.995 196.074 170.619 196.689C172.567 197.144 174.567 197.503 176.552 197.551C191.38 197.951 205.923 200.338 220.24 204.403C227.376 206.431 234.339 209.002 241.272 211.685C244.227 212.827 246.445 211.534 247.956 208.858C249.565 206.016 247.956 203.979 245.979 202.406C244.392 201.145 242.602 200.107 240.783 199.276C234.098 196.226 227.12 194.181 220.044 192.401C206.276 188.919 192.411 186.172 178.229 185.573L178.221 185.565ZM178.605 221.443C176.733 221.443 174.853 221.387 172.98 221.451C169.882 221.555 167.16 222.418 166.717 226.282C166.341 229.596 168.739 232.144 172.574 232.575C180.259 233.429 187.997 233.669 195.674 234.835C198.569 235.274 201.02 233.397 201.877 230.195C202.697 227.137 200.742 225.508 198.516 224.326C197.418 223.743 196.185 223.368 194.967 223.136C189.561 222.098 184.117 221.403 178.605 221.451V221.443Z" fill="#4573DF"/>
<path d="M346.355 313.378C345.746 310.12 347.062 309.162 350.1 308.212C373.651 300.817 389.096 284.543 395.923 259.406C396.833 256.044 397.946 254.862 401.367 254.974C411.127 255.285 420.91 255.181 430.678 255.046C434.671 254.99 438.686 254.63 441.716 251.165C444.686 247.771 445.799 243.898 444.438 239.482C443.01 234.851 440.054 231.968 435.4 231.058C431.791 230.347 428.196 230.499 424.565 230.579C416.301 230.762 408.029 230.611 399.766 230.69C397.826 230.714 397.111 230.131 396.57 227.943C390.028 201.217 374.41 183.833 349.092 176.686C346.927 176.079 346.265 175.041 346.288 172.661C346.415 160.955 346.461 149.248 346.273 137.542C346.22 134.332 347.228 132.088 349.19 129.812C360.131 117.139 373.004 107.229 387.283 99.268C409.195 87.0584 432.625 79.9435 456.883 75.3599C480.351 70.9201 504.007 69.315 527.783 68.9797C530.686 68.9397 531.505 69.6824 531.46 72.8446C531.302 83.6088 531.475 94.381 531.52 105.145C531.137 109.593 531.227 114.041 531.475 118.497C531.445 149.959 531.408 181.421 531.377 212.875C530.911 214.073 529.851 214.592 528.934 215.263C476.644 253.584 420.79 284.655 361.191 308.084C356.303 310.009 351.611 312.612 346.348 313.378H346.355ZM470.658 179.832C470.651 165.043 459.868 153.728 445.747 153.688C432.746 153.648 421.602 165.57 421.617 179.512C421.624 193.87 432.843 205.776 446.281 205.688C459.876 205.6 470.673 194.15 470.658 179.832ZM495.292 114.68C481.84 115.893 469.019 116.979 456.319 119.327C429.347 124.318 403.811 133.445 380.253 148.474C378.298 149.719 376.508 151.101 375.109 153.025C373.658 155.013 372.538 157.154 374.117 159.549C375.824 162.136 378.35 162.112 380.877 161.282C381.93 160.939 382.892 160.22 383.839 159.589C394.374 152.586 405.593 147.108 417.196 142.445C439.348 133.541 462.289 128.758 485.878 127.025C489.84 126.737 493.893 127.28 497.796 125.995C500.21 125.196 502.368 123.887 502.473 120.988C502.586 117.914 500.48 116.285 497.946 115.366C496.894 114.983 495.781 114.807 495.292 114.68ZM490.073 215.925C494.36 216.053 497.36 216.061 499.999 214.129C503.481 211.589 503.323 207.413 499.653 205.169C496.089 202.989 486.547 203.979 483.532 206.846C480.93 209.314 481.08 212.188 483.795 214.592C486.096 216.62 488.78 215.822 490.073 215.925ZM491.427 171.312C491.427 171.359 491.434 171.407 491.442 171.455C493.427 171.248 495.457 171.24 497.39 170.777C500.157 170.106 502.277 168.533 502.052 165.043C501.826 161.537 499.683 159.813 496.675 159.437C493.307 159.014 489.878 159.326 486.615 160.268C484.065 161.002 481.938 162.911 482.133 165.905C482.344 169.195 484.524 171.04 487.675 171.304C488.923 171.407 490.179 171.32 491.434 171.32L491.427 171.312ZM397.623 189.558C401.36 189.566 404.879 186.228 404.999 182.547C405.097 179.704 402.525 177.061 399.683 177.077C395.788 177.109 392.073 180.71 392.118 184.415C392.163 187.522 394.329 189.55 397.623 189.558Z" fill="#4573DF"/>
<path d="M531.279 242.085C531.294 287.961 531.279 333.837 531.4 379.712C531.407 382.803 530.324 383.034 527.956 383.002C511.3 382.795 494.652 382.962 478.035 384.424C444.603 387.354 412.33 394.853 382.741 412.452C367.951 421.252 354.213 431.617 342.603 444.905C342.347 445.2 342.092 445.487 341.828 445.775C335.7 452.403 333.474 452.483 327.316 445.975C315.202 433.166 301.945 421.907 287.065 412.931C265.085 399.676 241.384 391.754 216.495 387.65C204.133 385.606 191.704 384.08 179.229 383.162C179.628 381.301 181.146 382.012 182.131 381.908C197.148 380.247 212.014 377.724 226.782 374.314C235.294 372.35 243.663 369.499 252.445 368.988C256.506 370.705 260.581 372.374 264.619 374.139C290.524 385.486 313.683 401.041 331.865 424.071C333.956 426.722 334.805 426.826 336.956 424.175C349.258 409.066 363.702 396.649 380.042 386.779C410.375 368.453 443.295 359.581 477.899 357.122C484.013 356.691 490.156 356.675 496.277 356.331C499.721 356.132 502.209 353.552 502.157 350.414C502.097 346.613 499.713 345.112 496.608 344.601C495.013 344.337 493.359 344.337 491.735 344.393C470.801 345.104 450.138 347.971 429.798 353.337C399.562 361.314 371.718 374.41 347.949 396.274C347.551 396.641 347.122 397.368 346.22 396.649V338.564C347.49 336.903 349.423 336.544 351.145 335.865C356.882 333.597 362.695 331.529 368.424 329.221C422.978 307.23 475.26 280.407 524.181 246.453C526.452 244.872 528.512 242.828 531.264 242.109L531.279 242.085ZM484.223 319.511C488.103 319.511 491.976 319.679 495.833 319.024C499.984 318.313 502.277 316.045 502.082 312.54C501.901 309.346 499.33 307.118 495.352 307.118C492.359 307.118 489.374 307.533 486.381 307.773C472.801 308.867 459.266 310.344 445.919 313.354C441.528 314.345 437.107 315.343 433.136 317.754C430.7 319.232 429.482 321.308 430.429 324.382C431.377 327.464 433.475 328.391 436.287 327.92C438.009 327.632 439.731 327.305 441.415 326.842C455.469 322.977 469.666 320.038 484.223 319.519V319.511Z" fill="#4573DF"/>
<path d="M252.453 368.972C243.67 369.483 235.301 372.334 226.789 374.298C212.021 377.708 197.155 380.231 182.139 381.892C181.146 382.004 179.635 381.285 179.237 383.146C161.378 383.984 143.534 385.59 125.661 384.304C112.299 383.346 99.1775 380.878 86.966 374.682C69.0173 365.578 63.0845 349.336 70.5813 329.804C75.5591 316.836 83.5598 305.976 92.5003 295.867C104.276 282.547 117.465 270.968 131.669 260.683C133.398 259.43 135.022 257.944 137.173 257.505C137.196 262.815 137.218 268.126 137.241 273.436C125.465 282.811 114.961 293.567 105.953 305.944C101.644 311.869 98.0722 318.225 95.8465 325.396C91.9514 337.925 96.2074 349.073 107.404 354.614C116.863 359.294 127.014 360.683 137.338 361.019C154.009 361.841 170.597 360.611 187.132 358.495C226.383 353.457 264.476 343.124 301.991 330.155C309.096 327.696 316.608 326.482 323.165 322.346C330.903 319.351 338.633 316.365 346.37 313.37C351.634 312.604 356.326 310.001 361.213 308.076C420.805 284.639 476.659 253.568 528.956 215.255C529.873 214.584 530.934 214.065 531.4 212.867C531.949 212.596 532.573 212.436 533.039 212.053C542.889 203.86 552.447 195.291 561.267 185.861C568.967 177.636 575.922 168.764 580.155 157.88C585.344 144.545 582.05 134.084 570.455 126.61C566.891 124.31 563.026 122.817 559.018 121.779C549.98 119.439 540.746 118.888 531.497 118.497C531.249 114.049 531.159 109.593 531.543 105.145C537.724 103.74 544.01 104.099 550.236 104.307C562.823 104.738 575.441 105.544 587.299 110.679C598.307 115.438 607.707 122.162 610.444 135.593C612.188 144.161 610.805 152.426 607.511 160.372C600.879 176.358 590.081 189.071 578.554 201.081C564.613 215.614 549.236 228.351 533.325 240.369C532.618 240.904 531.971 241.518 531.294 242.101C528.542 242.82 526.482 244.864 524.211 246.445C475.29 280.399 423.015 307.23 368.455 329.213C362.725 331.521 356.92 333.589 351.175 335.857C349.445 336.544 347.513 336.895 346.25 338.556C338.294 341.471 330.346 344.385 322.391 347.292C311.645 350.71 300.885 354.087 290.155 357.569C283.741 359.653 276.913 360.268 270.875 363.702C264.815 365.754 258.401 366.417 252.468 368.98L252.453 368.972Z" fill="#F79606"/>
<path d="M333.73 292.481C308.314 292.369 286.929 269.196 287.26 242.141C287.599 214.847 308.751 192.225 333.895 192.273C360.288 192.321 381.771 215.031 381.553 242.636C381.328 270.202 359.845 292.593 333.73 292.481Z" fill="#F79606"/>
<path d="M333.512 32.894C343.866 33.2054 351.107 37.6453 355.228 46.6447C359.326 55.5963 359.085 64.7474 352.265 72.1339C347.28 77.5319 346.077 83.465 346.49 90.54C346.836 96.4811 347.062 102.51 345.783 108.395C344.603 113.817 340.467 117.53 335.527 117.794C329.346 118.129 325.699 115.622 323.767 109.625C322.827 106.718 322.406 103.692 322.353 100.625C322.293 97.0401 322.09 93.4227 322.421 89.8693C323.06 83.0418 321.511 77.5639 316.849 72.2856C310.457 65.0509 309.841 56.0594 313.833 47.0759C317.894 37.9567 325.083 33.6287 333.504 32.886L333.512 32.894Z" fill="#4573DF"/>
<path d="M260.153 27.7355C260.085 43.1711 248.377 55.213 233.557 55.1012C219.496 54.9974 208.066 42.4365 208.201 27.2564C208.344 12.5155 220.338 -0.205112 233.88 0.00250633C248.851 0.242066 260.221 12.236 260.153 27.7275V27.7355Z" fill="#4573DF"/>
<path d="M595.269 296.665C595.217 309.33 585.479 319.184 573.102 319.096C561.959 319.016 552.447 308.316 552.62 296.058C552.8 283.729 562.538 273.707 574.238 273.811C585.87 273.923 595.322 284.192 595.269 296.657V296.665Z" fill="#4573DF"/>
<path d="M73.2959 219.902C73.3109 208.124 82.7252 198.382 94.0945 198.382C105.058 198.382 114.277 208.212 114.382 220.006C114.487 231.792 105.238 242.141 94.5607 242.173C82.5673 242.213 73.2733 232.487 73.2883 219.894L73.2959 219.902Z" fill="#4573DF"/>
<path d="M335.798 0.840726C363.364 0.720947 389.953 6.31865 415.812 16.1566C417.323 16.7315 418.872 17.4103 420.165 18.3925C421.699 19.5583 422.324 21.347 421.534 23.3354C420.775 25.2598 419.376 26.1781 417.368 25.9466C415.225 25.699 413.278 24.8127 411.323 23.9423C392.569 15.5497 372.741 11.9563 352.679 10.0558C327.06 7.62825 301.712 10.0877 276.763 16.8433C273.958 17.6019 271.537 17.0829 270.718 13.9366C269.838 10.5349 272.327 9.05762 274.823 8.41879C284.064 6.05514 293.411 4.17859 302.848 3.04467C313.789 1.73508 324.767 0.712961 335.79 0.848712L335.798 0.840726Z" fill="#4573DF"/>
<path d="M448.07 53.8635C437.866 53.5041 429.663 44.2971 429.933 33.4929C430.196 22.8405 438.949 14.3361 449.363 14.6236C459.214 14.8871 467.575 24.4456 467.109 34.8983C466.628 45.5907 457.973 54.2148 448.07 53.8635Z" fill="#4573DF"/>
<path d="M67.1901 287.977C67.4007 277.572 68.3256 266.736 69.6866 255.932C69.9197 254.087 70.2129 252.267 70.9799 250.566C71.7995 248.745 72.9124 247.46 75.0479 247.939C77.2436 248.434 78.2662 249.895 78.0256 252.227C77.7398 254.99 77.424 257.761 76.9578 260.492C74.9877 272.062 74.514 283.705 75.1908 295.419C75.3186 297.663 75.2434 299.923 75.1757 302.175C75.1005 304.69 74.1456 306.798 71.5589 306.854C69.0173 306.91 67.8293 304.81 67.5511 302.399C67.0172 297.783 66.8292 293.128 67.1751 287.977H67.1901Z" fill="#4573DF"/>
<path d="M97.8994 188.823C95.621 188.935 94.4856 187.761 94.4179 185.541C94.3803 184.368 94.3954 183.074 94.824 182.028C100.193 168.764 107.614 156.866 116.435 145.918C118.089 143.866 120.044 144.114 121.796 145.399C123.744 146.829 123.774 148.969 122.623 151.053C122.059 152.075 121.382 153.073 120.593 153.896C115.728 158.99 112.209 165.107 108.885 171.351C106.366 176.079 104.208 181.014 101.764 185.781C100.952 187.37 99.9898 189.103 97.9069 188.823H97.8994Z" fill="#4573DF"/>
<path d="M583.05 257.681C583.05 258.16 583.073 258.958 583.05 259.749C582.96 262.336 581.907 264.141 579.298 264.221C576.771 264.301 575.298 262.743 575.072 260.156C574.786 256.858 574.741 253.536 574.598 250.23C574.192 240.935 572.711 231.808 570.906 222.729C570.703 221.699 570.508 220.637 570.508 219.591C570.523 217.427 571.275 215.558 573.44 215.111C575.651 214.656 577.418 215.606 578.05 218.066C578.742 220.741 579.433 223.424 579.869 226.155C581.524 236.488 582.479 246.901 583.05 257.681Z" fill="#4573DF"/>
<path d="M571.839 334.611C571.666 335.25 571.463 336.152 571.192 337.031C568.132 346.877 564.049 356.236 559.093 365.163C557.981 367.159 556.71 369.124 554.055 367.918C551.303 366.672 551.431 364.349 552.288 361.897C552.852 360.292 553.469 358.679 554.251 357.186C557.642 350.678 560.605 343.978 562.785 336.903C563.372 335.011 564.004 333.142 565.207 331.577C566.395 330.028 567.899 329.756 569.575 330.579C571.087 331.313 571.891 332.543 571.839 334.619V334.611Z" fill="#4573DF"/>
<path d="M534.896 418.513C534.987 422.729 531.603 426.323 527.527 426.347C523.497 426.363 520.113 422.873 520.023 418.593C519.94 414.472 523.121 410.879 526.956 410.759C531.174 410.632 534.799 414.177 534.889 418.513H534.896Z" fill="#4573DF"/>
<path d="M162.198 418.617C162.205 422.929 158.949 426.299 154.731 426.347C150.633 426.395 147.377 422.865 147.43 418.449C147.482 414.217 150.971 410.584 154.934 410.639C158.979 410.703 162.19 414.225 162.198 418.617Z" fill="#4573DF"/>
<path d="M286.847 55.6522C286.952 59.5889 283.861 63.2782 280.297 63.4698C276.049 63.7014 272.372 60.2916 272.184 55.9396C272.011 51.915 275.289 48.2498 279.132 48.1619C283.267 48.0741 286.734 51.4359 286.847 55.6442V55.6522Z" fill="#4573DF"/>
<path d="M405.285 60.7947C405.202 65.0509 401.728 68.4526 397.69 68.253C393.78 68.0534 390.682 64.5398 390.795 60.4274C390.9 56.3389 394.209 52.9451 398.044 52.9851C402.224 53.033 405.375 56.4267 405.292 60.7947H405.285Z" fill="#4573DF"/>
<path d="M470.658 179.832C470.666 194.15 459.875 205.6 446.28 205.688C432.851 205.776 421.632 193.87 421.617 179.512C421.609 165.57 432.745 153.648 445.746 153.688C459.868 153.728 470.643 165.043 470.658 179.832Z" fill="#F79606"/>
<path d="M322.376 347.292C323.037 356.571 322.489 365.866 322.594 375.145C322.677 382.411 322.609 389.686 322.609 397.783C319.165 394.837 316.33 392.345 313.428 389.958C302.126 380.663 290.133 372.613 276.793 366.976C274.725 366.097 272.62 365.243 270.868 363.702C276.898 360.276 283.726 359.653 290.148 357.569C300.878 354.087 311.638 350.71 322.383 347.292H322.376Z" fill="#4573DF"/>
<path d="M560.883 171.104C560.597 173.316 559.221 175.073 556.672 175.28C554.01 175.488 550.574 170.641 550.822 167.207C551.01 164.588 552.296 163.055 554.898 163.135C557.748 163.222 560.989 167.303 560.883 171.104Z" fill="#4573DF"/>
<path d="M580.409 489.098C583.871 484.402 587.195 480.106 590.252 475.658C591.652 473.622 593.254 472.576 596.081 472.656C601.228 472.8 606.375 472.696 612.406 472.696C607.895 478.325 603.788 483.38 599.773 488.491C596.845 492.22 592.324 495.813 591.679 499.846C591.016 504.038 596.633 507.336 599.46 511.041C604.101 517.118 609.073 523.011 614.423 529.623C607.674 529.623 601.624 529.591 595.574 529.639C593.613 529.655 593.024 528.298 592.195 527.275C588.245 522.388 584.387 517.437 580.096 511.999C576.449 516.934 572.794 521.598 569.525 526.453C567.84 528.96 565.833 529.783 562.527 529.719C552.407 529.519 542.288 529.559 532.168 529.695C529.599 529.727 528.329 529.048 527.518 526.94C526.257 523.682 524.48 520.568 523.227 517.302C522.509 515.433 521.349 514.882 519.213 514.898C509.093 514.97 498.974 514.994 488.854 514.898C486.755 514.874 485.871 515.609 485.281 517.182C484.048 520.456 482.648 523.682 481.396 526.948C480.705 528.745 479.766 529.783 477.206 529.687C471.856 529.487 466.479 529.623 461.157 529.623C460.254 528.401 461.23 527.483 461.626 526.605C471.893 503.775 482.27 480.977 492.464 458.115C493.569 455.639 494.821 454.545 498.025 454.753C503.329 455.096 509.83 452.709 513.669 455.344C517.205 457.779 517.97 463.281 519.876 467.457C528.596 486.55 537.279 505.651 545.989 524.736C546.542 525.942 547.26 527.084 548.052 528.521C556.284 519.929 562.297 510.49 569.313 501.651C570.621 500.006 569.12 499.207 568.328 498.209C562.683 491.102 556.965 484.035 551.33 476.92C550.418 475.77 549.157 474.732 549.01 472.8C555.05 472.8 560.962 472.824 566.882 472.784C569.009 472.768 569.663 474.221 570.538 475.411C573.797 479.859 576.993 484.346 580.4 489.074L580.409 489.098ZM504.231 472.784C500.281 482.11 496.801 490.439 493.2 498.736C492.556 500.213 492.473 500.916 494.655 500.892C500.935 500.836 507.224 500.844 513.504 500.892C515.511 500.908 515.852 500.309 515.18 498.744C511.625 490.439 508.154 482.102 504.231 472.784Z" fill="#4573DF"/>
<path d="M172.653 479.403C182.312 468.783 201.032 468.376 210.313 482.086C214.521 475.978 220.534 472.352 228.72 471.777C243.075 470.779 252.67 478.517 253.139 492.076C253.545 503.767 253.204 515.473 253.296 527.18C253.314 529.088 252.661 529.919 250.442 529.647C250.294 529.631 250.138 529.647 249.981 529.647C245.405 529.551 239.438 530.933 236.63 528.952C233.701 526.892 235.819 521.51 235.736 517.581C235.589 510.802 235.884 504.014 235.608 497.243C235.313 490.072 231.722 486.367 225.424 486.039C219.834 485.752 216.492 487.62 214.475 492.22C212.468 496.787 212.44 501.595 212.45 506.378C212.45 513.157 212.56 519.945 212.799 526.716C212.873 528.88 212.302 529.839 209.549 529.687C204.982 529.439 199.034 530.965 196.179 528.992C193.196 526.932 195.406 521.558 195.304 517.637C195.12 510.458 195.553 503.264 195.056 496.109C194.512 488.267 187.993 484.33 180.443 486.806C175.756 488.347 173.822 491.805 173.122 495.757C171.391 505.539 172.192 515.409 172.551 525.223C172.69 529 171.456 530.094 167.34 529.695C164.458 529.415 161.502 529.479 158.611 529.695C155.636 529.911 155.038 528.801 155.056 526.469C155.222 509.58 155.333 492.691 155.259 475.81C155.25 473.047 156.373 472.328 159.218 472.64C160.425 472.768 161.668 472.664 162.892 472.664C168.663 472.674 171.916 474.921 172.653 479.403Z" fill="#4573DF"/>
<path d="M282.283 481.264C290.634 472.209 300.376 469.701 311.647 473.135C324.206 476.96 329.768 485.8 331.324 496.564C332.972 507.943 330.017 518.396 319.317 525.974C309.105 533.201 296.196 532.793 286.049 525.543C285.155 524.904 284.262 524.257 282.771 523.187C282.771 531.723 282.669 539.637 282.835 547.542C282.881 549.874 282.393 550.92 279.391 550.752C274.833 550.505 268.83 552.118 266.067 550.161C263.176 548.109 265.239 542.703 265.22 538.766C265.137 517.901 265.266 497.027 265.147 476.161C265.128 473.438 265.828 472.312 269.152 472.616C271.878 472.863 274.704 472.935 277.412 472.608C281.666 472.097 282.946 473.59 282.319 477.008C282.135 478.038 282.292 479.108 282.292 481.264H282.283ZM282.494 503.096C282.679 506.41 284.004 510.826 288.581 513.932C293.59 517.334 299.152 518.02 304.851 515.473C311.453 512.519 313.645 507.208 313.617 501.211C313.58 493.186 307.954 486.902 300.533 486.079C290.063 484.913 282.458 491.461 282.504 503.096H282.494Z" fill="#4573DF"/>
<path d="M44.7818 530.949C20.795 531.388 1.44911 515.864 0.0863366 495.063C-1.3501 473.175 15.2795 455.615 39.3859 453.283C54.4777 451.822 67.0006 456.046 77.7462 465.126C80.2324 467.226 79.8457 468.352 77.4516 469.957C74.3025 472.073 71.2086 474.261 68.2713 476.593C66.531 477.966 65.4997 477.758 63.8514 476.377C57.5532 471.083 50.2789 467.601 41.1354 468.991C28.3916 470.923 20.6753 478.876 19.7269 490.679C18.7048 503.471 27.4708 513.421 41.9917 515.258C50.3894 516.32 57.7189 513.501 63.612 508.374C66.0337 506.266 67.6175 506.266 69.9655 508.143C71.9821 509.756 74.3117 511.081 76.5032 512.535C79.5786 514.568 79.8395 516.78 77.2859 519.17C69.1921 526.74 58.253 530.701 44.7818 530.949Z" fill="#4573DF"/>
<path d="M126.567 524.76C114.182 532.45 103.096 533.017 93.8418 526.621C86.6136 521.622 84.4221 514.906 86.7885 507.344C88.9248 500.517 94.8179 496.963 102.645 495.654C109.541 494.496 116.401 495.087 123.178 496.244C126.051 496.732 126.604 496.029 126.291 493.721C125.683 489.154 122.285 486.047 116.816 485.384C111.3 484.714 105.996 485.728 101.309 488.012C97.9209 489.657 96.4661 488.754 95.0204 486.295C94.468 485.352 93.7313 484.49 93.0315 483.62C90.4901 480.457 91.1776 478.014 95.0941 476.289C104.578 472.105 114.56 470.931 124.974 472.696C135.959 474.564 143.012 481.807 143.473 492.731C143.961 504.278 143.611 515.856 143.731 527.419C143.749 529.216 142.957 529.719 141.051 529.671C137.985 529.591 134.9 529.447 131.861 529.703C127.948 530.022 125.591 529.224 126.548 524.76H126.567ZM116.595 505.939C116.595 505.843 116.595 505.739 116.585 505.643C114.155 505.755 111.696 505.699 109.302 506.01C106.245 506.41 103.796 507.783 103.151 510.602C102.516 513.373 104.053 515.513 106.549 517.086C110.84 519.793 118.74 519.641 122.976 516.871C125.517 515.218 127.718 509.788 126.383 507.48C125.002 505.084 122.018 506.418 119.79 505.971C118.777 505.771 117.663 505.939 116.595 505.939Z" fill="#4573DF"/>
<path d="M380.283 523.474C376.894 526.213 373.874 528.793 369.694 529.974C355.79 533.895 342.051 526.9 339.97 514.227C337.825 501.147 339.077 487.924 339.068 474.764C339.068 473.271 339.731 472.512 341.526 472.664C341.683 472.68 341.83 472.664 341.987 472.664C346.582 472.696 352.318 471.282 355.486 473.143C359.049 475.235 356.204 480.465 356.351 484.306C356.637 492.012 355.992 499.734 357.162 507.424C358.092 513.501 362.079 517.054 368.294 517.038C374.712 517.022 379.988 512.838 380.172 506.961C380.43 498.456 380.172 489.936 380.154 481.424C380.154 479.427 380.301 477.439 380.384 475.443C380.467 473.494 381.581 472.76 383.874 472.616C398.183 471.721 398.128 471.682 398.1 483.979C398.072 498.081 398.072 512.183 398.229 526.285C398.257 528.809 397.667 529.95 394.472 529.687C391.581 529.447 388.607 529.391 385.743 529.711C381.655 530.166 380.071 528.88 380.669 525.383C380.752 524.92 380.485 524.409 380.292 523.474H380.283Z" fill="#4573DF"/>
<path d="M433.514 530.909C423.827 531.037 415.568 528.306 407.98 523.642C405.955 522.396 405.273 521.526 407.235 519.713C409.638 517.493 411.194 514.132 414.058 512.862C417.382 511.385 419.804 515.329 423.072 516.208C428.68 517.717 434.177 519.538 439.877 516.751C443.772 514.842 443.799 513.094 440.089 510.866C437.032 509.029 433.459 508.191 430.015 507.121C426.277 505.963 422.446 505.012 418.809 503.655C412.179 501.187 408.321 496.636 408.017 490.431C407.704 483.875 410.927 478.509 417.566 475.107C428.367 469.582 447.142 471.41 456.497 478.621C457.731 479.571 457.842 480.122 456.819 481.16C454.527 483.476 452.225 485.808 450.144 488.259C448.735 489.912 447.547 489.082 446.332 488.299C443.026 486.167 439.168 485.384 435.227 484.802C432.768 484.434 430.291 484.514 427.999 485.385C423.984 486.91 423.662 489.425 427.216 491.605C430.126 493.386 433.56 494.112 436.949 494.951C442.078 496.221 447.262 497.354 451.663 500.229C463.173 507.759 461.147 523.291 447.943 528.417C443.256 530.238 438.358 531.116 433.514 530.893V530.909Z" fill="#4573DF"/>
<path d="M644.634 521.718C645.049 521.223 645.38 520.791 645.748 520.384C648.142 517.797 649.984 514.227 653.096 512.886C656.512 511.417 659.266 515.537 662.746 516.447C666.724 517.493 670.684 518.476 674.91 518.02C677.571 517.733 680.333 517.286 680.932 514.579C681.53 511.896 679.228 510.426 676.89 509.372C672.93 507.584 668.501 506.993 664.256 505.891C656.862 503.966 650.251 501.124 647.894 493.921C645.352 486.143 649.717 477.415 658.262 474.333C671.346 469.613 683.676 471.362 695.241 478.254C696.963 479.276 697.129 480.09 695.674 481.312C695.131 481.767 694.716 482.35 694.228 482.861C692.285 484.913 690.766 487.692 688.262 488.81C685.674 489.968 683.39 486.91 680.693 486.223C676.254 485.081 671.862 483.955 667.212 485.289C665.757 485.704 664.137 486.039 663.778 487.58C663.4 489.225 664.551 490.311 665.923 491.27C668.483 493.058 671.558 493.897 674.588 494.815C678.188 495.909 681.89 496.787 685.416 498.033C694.753 501.331 698.206 505.739 697.985 513.692C697.783 520.751 692.847 526.796 684.541 529.216C671.365 533.057 659.201 530.677 647.977 523.93C646.844 523.251 645.785 522.492 644.625 521.734L644.634 521.718Z" fill="#4573DF"/>
<path d="M637.12 501.275C637.12 509.652 636.973 518.028 637.203 526.405C637.277 529.128 636.246 529.879 633.345 529.671C628.944 529.36 623.189 531.236 620.454 528.984C617.71 526.716 619.662 521.694 619.634 517.893C619.542 503.934 619.68 489.968 619.57 476.01C619.551 473.534 620.086 472.384 623.299 472.616C627.701 472.927 633.391 471.242 636.209 473.47C639.091 475.746 636.973 480.729 637.093 484.522C637.268 490.104 637.139 495.693 637.129 501.275H637.12Z" fill="#4573DF"/>
</svg>
